<svg width="34" height="34" viewBox="0 0 34 34" fill="none" xmlns="http://www.w3.org/2000/svg">
<path opacity="0.6" fill-rule="evenodd" clip-rule="evenodd" d="M32.8756 12.9925L30.2434 14.5249C30.3911 15.3295 30.488 16.1516 30.488 17.0001C30.488 17.8482 30.3911 18.6703 30.2434 19.475L32.8756 21.0073C33.9509 21.6332 34.3191 23.0193 33.6986 24.1035L31.4504 28.0297C30.8297 29.1135 29.4549 29.4851 28.3798 28.8592L25.7204 27.3113C24.4781 28.3776 23.0658 29.2494 21.496 29.8098V31.7331C21.496 32.985 20.4896 34 19.2478 34H14.7519C13.5105 34 12.5041 32.985 12.5041 31.7331V29.8098C10.9343 29.2494 9.52199 28.3776 8.27946 27.3113L5.62037 28.8592C4.54505 29.4851 3.17021 29.1135 2.54945 28.0297L0.301513 24.1035C-0.319206 23.0193 0.0492075 21.6332 1.12433 21.0073L3.7565 19.475C3.60896 18.6703 3.51208 17.8482 3.51208 17.0001C3.51208 16.1516 3.60896 15.3295 3.7565 14.5249L1.12433 12.9925C0.0492075 12.3667 -0.319206 10.9802 0.301513 9.89635L2.54945 5.97026C3.17021 4.88599 4.54505 4.51438 5.62037 5.14053L8.27946 6.6886C9.52199 5.62191 10.9343 4.75051 12.5041 4.19023V2.26664C12.5041 1.01489 13.5105 0 14.7519 0H19.2478C20.4896 0 21.496 1.01489 21.496 2.26664V4.19023C23.0658 4.75051 24.4781 5.62191 25.7204 6.6886L28.3798 5.14053C29.4549 4.51438 30.8297 4.88599 31.4504 5.97026L33.6986 9.89635C34.3191 10.9802 33.9509 12.3667 32.8756 12.9925ZM31.1896 10.0479L30.0657 8.08485C29.7552 7.5431 29.0678 7.35703 28.5303 7.67014L25.4073 9.48826C23.8221 7.68531 21.68 6.39201 19.2478 5.89418V3.39988C19.2478 2.77395 18.7446 2.26664 18.1239 2.26664H15.876C15.255 2.26664 14.7519 2.77395 14.7519 3.39988V5.89418C12.3199 6.39201 10.1778 7.68531 8.59277 9.48826L5.46979 7.67014C4.93211 7.35703 4.24471 7.5431 3.93424 8.08485L2.81046 10.0479C2.49999 10.59 2.68421 11.2835 3.22166 11.5962L6.35723 13.4215C5.98373 14.5489 5.75998 15.7456 5.75998 17.0001C5.75998 18.2543 5.98373 19.4509 6.35723 20.5785L3.22166 22.4036C2.68421 22.7168 2.49999 23.4099 2.81046 23.9519L3.93424 25.9147C4.24471 26.4568 4.93211 26.6425 5.46979 26.3294L8.59258 24.5116C10.1778 26.3146 12.3199 27.6078 14.7519 28.1057V30.6001C14.7519 31.2259 15.255 31.7331 15.876 31.7331H18.1239C18.7446 31.7331 19.2478 31.2259 19.2478 30.6001V28.1057C21.68 27.6078 23.8221 26.3146 25.4073 24.5116L28.5303 26.3294C29.0678 26.6425 29.7552 26.4568 30.0657 25.9147L31.1896 23.9519C31.5001 23.4099 31.3157 22.7168 30.7782 22.4036L27.6427 20.5785C28.0164 19.4509 28.2399 18.2543 28.2399 17.0001C28.2399 15.7456 28.0164 14.5489 27.6427 13.4215L30.7782 11.5962C31.3157 11.2835 31.5001 10.59 31.1896 10.0479ZM16.9999 22.6664C13.896 22.6664 11.38 20.1295 11.38 17.0001C11.38 13.8701 13.896 11.3331 16.9999 11.3331C20.1037 11.3331 22.6199 13.8701 22.6199 17.0001C22.6199 20.1295 20.1037 22.6664 16.9999 22.6664ZM16.9999 13.5999C15.1377 13.5999 13.6281 15.1221 13.6281 17.0001C13.6281 18.8776 15.1377 20.3997 16.9999 20.3997C18.8622 20.3997 20.3718 18.8776 20.3718 17.0001C20.3718 15.1221 18.8622 13.5999 16.9999 13.5999Z" fill="#744343"/>
</svg>
